# xmcd
#
# Track frame offsets: 
#        150
#        21902
#        42655
#        66210
#        93534
#        114883
#        132314
#        152342
#        167798
#        185435
#        206075
#        222323
#        242934
#        258647
#
# Disc length: 3730 seconds
#
# Revision: 0
# Processed by: cddbd v1.5.2PL0 Copyright (c) Steve Scherf et al.
# Submitted via: ExactAudioCopy v1.2
#
DISCID=ce0e900e
DTITLE=The Harry Garner Band - Somethin's 'Bout to Pop!
DYEAR=2017
DGENRE=Blues
TTITLE0=Somethin's 'Bout to Pop
TTITLE1=Running Down the Road
TTITLE2=Just the Way I Am
TTITLE3=Carry My Blues Away
TTITLE4=Everybody Needs Somebody (feat. Charlie Musselwhite)
TTITLE5=On the Mark (feat. Mark Wydra)
TTITLE6=Ain't That a Shame
TTITLE7=Meet Me at the Bottom
TTITLE8=Not Looking for Love
TTITLE9=Trouble in Mind
TTITLE10=The Otter (feat. Mark Wydra)
TTITLE11=Don't Do Like Your Daddy Done
TTITLE12=Weigh Anchor
TTITLE13=Weigh Anchor (feat. Ron Sorin) (Alternate Take)
EXTD=
EXTT0=
EXTT1=
EXTT2=
EXTT3=
EXTT4=
EXTT5=
EXTT6=
EXTT7=
EXTT8=
EXTT9=
EXTT10=
EXTT11=
EXTT12=
EXTT13=
PLAYORDER=
